<?xml version="1.0" encoding="UTF-8" standalone="no"?>
<!-- Created with Inkscape (http://www.inkscape.org/) -->

<svg
   width="185mm"
   height="145mm"
   viewBox="0 0 185 145"
   version="1.1"
   id="svg2157"
   inkscape:version="1.2.2 (732a01da63, 2022-12-09)"
   sodipodi:docname="logMobile.svg"
   xmlns:inkscape="http://www.inkscape.org/namespaces/inkscape"
   xmlns:sodipodi="http://sodipodi.sourceforge.net/DTD/sodipodi-0.dtd"
   xmlns="http://www.w3.org/2000/svg"
   xmlns:svg="http://www.w3.org/2000/svg">
  <sodipodi:namedview
     id="namedview2159"
     pagecolor="#ffffff"
     bordercolor="#000000"
     borderopacity="0.25"
     inkscape:showpageshadow="2"
     inkscape:pageopacity="0.0"
     inkscape:pagecheckerboard="0"
     inkscape:deskcolor="#d1d1d1"
     inkscape:document-units="mm"
     showgrid="false"
     inkscape:zoom="0.74564394"
     inkscape:cx="308.45822"
     inkscape:cy="454.64059"
     inkscape:window-width="1920"
     inkscape:window-height="1017"
     inkscape:window-x="760"
     inkscape:window-y="-8"
     inkscape:window-maximized="1"
     inkscape:current-layer="g8643" />
  <defs
     id="defs2154">
    <inkscape:path-effect
       effect="powerstroke"
       id="path-effect3174"
       is_visible="true"
       lpeversion="1"
       offset_points="1,0"
       not_jump="true"
       sort_points="true"
       interpolator_type="CentripetalCatmullRom"
       interpolator_beta="0.75"
       start_linecap_type="peak"
       linejoin_type="spiro"
       miter_limit="4"
       scale_width="1"
       end_linecap_type="peak" />
  </defs>
  <g
     inkscape:label="Camada 1"
     inkscape:groupmode="layer"
     id="layer1">
    <g
       id="g8643"
       transform="matrix(0.26458333,0,0,0.26458333,-114.50751,-12.050344)">
      <path
         style="opacity:0.99;fill:#ffffff;fill-opacity:1;stroke:none;stroke-width:0.921503;stroke-opacity:0.933333"
         d="m 612.71563,384.09327 c -20.74972,-26.30867 -42.00286,-50.60362 -62.24915,-78.92601 -3.84896,-7.74325 -6.29899,-26.25807 0.20983,-41.70509 5.37523,-11.41792 14.81429,-20.19769 24.61002,-28.97227 71.12493,-59.4519 187.46508,-160.131772 213.3761,-178.35623 10.77768,-6.343812 29.73839,-7.42394 43.27665,-2.79069 16.49061,7.790016 54.36482,59.93698 55.88763,60.18257 19.38468,-12.61253 39.75582,-22.297496 63.78224,-22.553037 33.61089,2.406009 51.17615,22.110647 51.84885,52.210977 -2.0147,31.78341 -11.41692,58.77929 -27.2196,77.82069 4.94964,5.38941 28.4254,31.05327 27.7243,47.14385 1.2866,33.75172 -21.4193,47.2768 -29.81973,55.47749 l -69.24587,60.2008 50.61774,1.22568 c 4.99082,1.88205 9.27999,6.57074 13.46442,11.67848 7.43922,-6.21381 16.22747,-11.14845 28.55711,-12.29132 l 106.08553,0.35899 c 9.5174,2.90786 14.8804,10.91773 16.6683,20.18764 l -5.55,32.52247 -7.2925,6.17197 c 10.9501,7.37696 -4.5025,59.37976 -8.2643,80.57625 -1.0464,4.98658 -2.4902,9.70834 -5.9616,13.07832 l -1.7334,47.77287 c 0.034,-0.17192 -596.74898,-1.06131 -598.52311,-0.84493 -8.28965,1.01098 -13.47565,-1.96903 -14.83653,-2.6744 -37.24266,13.97587 -54.13442,-28.04461 -28.69267,-49.64425 l -1.35211,-10.1904 c 8.26786,-43.17227 12.14282,-77.62679 22.2102,-120.41313 2.80926,-8.01405 10.18014,-17.68179 21.73223,-17.61369 l 28.21787,0.16642 c 5.90132,0.0349 11.04041,3.43553 15.17472,7.82872 3.60984,-3.47138 7.63253,-6.42676 13.05791,-7.62874 z"
         id="path357"
         sodipodi:nodetypes="cccccccccccccccccccccccsccccssccc" />
      <g
         id="g3350"
         transform="translate(-4.3983595,-173.73521)">
        <g
           id="g1369">
          <path
             style="opacity:0.99;fill:#000000;fill-opacity:1;stroke:none;stroke-width:0.890244;stroke-opacity:1"
             d="m 741.33389,558.47328 c 0.0321,-0.19142 -36.88256,-47.98949 -36.88256,-47.98949 0,0 60.06037,-3.08174 100.35986,-5.19699 l -27.59374,7.01209 c 1.15139,3.34271 2.51459,6.47362 4.28899,9.19331 l 7.90869,37.68366 90.74961,0.15384 94.59662,-82.71347 c 11.42914,-12.64657 12.14613,-28.40257 6.51726,-38.19224 l -26.1816,-35.3417 c 34.5315,-46.14512 46.11728,-117.06517 -13.52251,-110.93633 -26.55311,4.02555 -47.36215,21.3976 -55.91651,29.03221 53.59559,-3.8884 71.51993,40.04149 67.64576,81.58956 -1.37747,60.20253 -62.86054,133.78655 -120.16984,94.64367 -23.77255,-18.55649 -27.00895,-42.42651 -28.01506,-66.49143 -6.8326,4.7491 -14.9953,10.64648 -28.28052,14.23518 -2.59315,1.25312 -121.77235,17.04222 -130.84762,15.41333 -14.01742,-2.1686 -16.59409,-19.83901 -13.86185,-32.05822 7.10472,-31.77396 33.52457,-58.76315 49.11963,-67.53826 49.91805,-28.08814 147.15324,-47.99748 174.17927,-56.94327 5.21886,-1.85059 10.3337,-4.1148 10.82759,-6.90132 -11.49432,-16.56064 -28.14421,-38.52919 -37.94343,-42.06675 -19.32874,-3.64101 -26.85283,-0.0555 -33.46299,5.57374 L 585.43699,438.16389 c 0,0 -19.36875,21.75703 -3.71073,41.68825 l 62.36175,79.38081 z"
             id="path5169"
             sodipodi:nodetypes="cccccccccccccccccsscccccscc" />
          <path
             style="opacity:0.99;fill:#ff0000;fill-opacity:1;stroke:none;stroke-width:0.890244;stroke-opacity:1"
             d="m 880.97969,379.32377 c -8.63063,7.79544 -19.21376,31.09597 -4.50411,41.04109 10.61076,5.12939 21.3754,-7.77376 28.11766,-22.63663 7.0343,26.93467 -13.64538,57.38276 -37.05972,50.97188 -16.47696,-7.65268 -18.18924,-22.85642 -14.47752,-40.59624 3.733,-13.13862 11.92287,-24.14303 27.92369,-28.7801 z"
             id="path5225"
             sodipodi:nodetypes="cccccc" />
          <path
             style="opacity:0.99;fill:#d40000;fill-opacity:1;stroke:none;stroke-width:0.890244;stroke-opacity:1"
             d="m 649.2193,412.86942 c 62.28339,-47.32698 116.24107,-64.93852 189.44807,-90.9152 -30.58384,8.03877 -53.40095,15.04575 -81.08613,23.37134 -19.29616,5.80281 -42.77893,11.64454 -63.98075,21.67226 -7.71235,4.53941 -16.37202,9.95137 -23.48114,17.09179 -8.64976,8.68784 -16.30943,18.96035 -20.90005,28.77981 z"
             id="path5281"
             sodipodi:nodetypes="ccscsc" />
          <ellipse
             style="opacity:0.99;fill:#d40000;fill-opacity:1;stroke:none;stroke-width:0.890244;stroke-opacity:1"
             id="path5340"
             cx="864.8324"
             cy="430.91998"
             rx="0.99360871"
             ry="6.2928553" />
          <path
             id="path5342"
             style="opacity:0.99;fill:#000000;fill-opacity:1;stroke:none;stroke-width:0.890244;stroke-opacity:1"
             d="m 894.33289,337.67832 c -10.58913,-0.0388 -22.51165,3.93519 -31.62543,8.90558 l -46.71515,71.41873 c -0.37847,26.75903 2.52433,44.48598 18.70065,60.66709 11.53433,8.74433 28.55371,12.71885 42.27353,10.40455 13.68971,-2.10584 31.82935,-14.02381 43.17716,-26.68967 21.25832,-26.35715 29.99932,-62.56512 17.8841,-93.39969 -6.99786,-12.65353 -14.86234,-24.4391 -30.47005,-28.48278 -3.87362,-1.9592 -8.41157,-2.80617 -13.22481,-2.82381 z m -5.35817,23.61525 c 43.66759,0.55512 48.74357,54.37374 24.7777,84.99652 -15.71362,18.7164 -41.1428,29.38677 -59.95407,18.73477 -41.70086,-25.77619 -18.24076,-85.90679 20.37493,-102.10878 5.35389,-1.16721 10.2841,-1.67993 14.80144,-1.62251 z" />
        </g>
        <g
           id="g1336">
          <circle
             id="path295"
             style="fill:#cd2550;stroke:#eeeeee;stroke-width:0.602412"
             cx="504.45932"
             cy="575.3363"
             r="0.88093084" />
          <circle
             id="path297"
             style="fill:#cd2550;stroke:#eeeeee;stroke-width:0.602412"
             cx="536.43005"
             cy="576.52039"
             r="0.88093084" />
          <circle
             id="path299"
             style="fill:#cd2550;stroke:#eeeeee;stroke-width:0.602412"
             cx="517.48444"
             cy="697.29877"
             r="0.88093084" />
          <path
             style="opacity:0.99;fill:#000000;fill-opacity:1;stroke:none;stroke-width:0.890244;stroke-opacity:1"
             d="m 509.69276,574.67868 24.26792,0.31456 c 4.74422,-0.17421 5.78741,2.98709 4.59666,7.56084 l -21.07988,110.83416 c -0.0373,-0.01 -1.66679,5.46545 -6.70097,5.47489 l -24.92231,0.0769 c -3.05856,-0.79365 -5.34208,-2.23317 -5.60347,-5.3578 l 20.39567,-111.34272 c 0.46143,-3.35245 2.8124,-6.96679 9.04638,-7.56085 z"
             id="path9989"
             sodipodi:nodetypes="ccccccccc" />
          <path
             id="path9991"
             style="opacity:0.99;fill:#000000;fill-opacity:1;stroke:none;stroke-width:0.890244;stroke-opacity:1"
             d="m 651.34449,574.73791 -85.44127,0.46828 c -4.44393,0.32043 -7.96919,2.25291 -8.89969,7.85371 l -19.14657,105.85621 c -1.56918,5.62957 0.88887,10.41851 4.65574,9.728 l 20.74555,0.7989 c 3.75373,-0.7022 7.83396,-0.64459 10.33395,-4.27218 l 5.53466,-27.63446 64.5863,0.08 c 11.77651,-1.85326 26.80112,-14.28518 30.78183,-27.89566 l 5.69585,-27.15206 c 1.54969,-10.75928 1.60645,-20.81192 -5.15227,-27.63564 -6.25804,-5.75865 -6.93049,-8.00323 -23.69408,-10.19511 z m -59.75288,31.20305 45.53856,0.35062 c 3.60579,-0.21636 5.14725,2.19685 5.34757,4.54985 l -3.2709,19.95959 c -0.962,3.49236 -3.40653,5.29053 -6.5477,6.29239 l -46.24098,-0.20355 c -0.93686,-0.48552 -1.90095,-0.94413 -1.3166,-2.95088 l 4.31572,-25.39777 c 0.44107,-1.0326 0.0211,-2.56638 2.17433,-2.60025 z" />
          <path
             style="opacity:0.99;fill:#d40000;fill-opacity:1;stroke:none;stroke-width:0.890244;stroke-opacity:1"
             d="m 724.21989,575.33146 84.31049,-0.2342 c 3.10849,0.0666 7.50663,0.6806 6.79168,7.0685 l -3.51293,17.75626 c -1.54424,4.68408 -4.51306,7.18378 -9.36784,6.79168 l -74.24007,0.46839 c -2.48409,0.13868 -4.21382,1.13948 -5.15231,3.04454 l -1.17098,7.96266 c -0.3528,3.33152 1.23815,4.42027 3.74713,4.44972 l 52.22567,0.2342 c 6.94781,0.52949 13.89562,1.01907 20.84343,5.8549 10.29583,10.15469 9.85152,16.44293 9.36783,22.71699 -1.42068,31.25547 -19.23481,49.05505 -48.71273,47.30756 h -76.81623 c -4.59034,-0.6842 -5.86325,-3.24348 -5.3865,-6.79168 l 3.74713,-18.96986 c 0.79521,-3.42857 3.29197,-5.97147 6.79168,-6.55749 l 75.50805,0.1656 c 0.17043,-0.008 7.58971,0.4687 7.63146,-3.44434 l 1.23957,-7.16307 c 0.16097,-4.40485 -4.49987,-3.80294 -7.79705,-3.60994 l -56.53819,-0.0284 c -9.23516,-1.3761 -15.37062,-6.19868 -18.73567,-12.17818 -4.63432,-8.72931 -4.13674,-17.62416 -1.96814,-26.57291 4.57493,-20.73616 17.18346,-36.75637 37.19452,-38.2709 z"
             id="path10050"
             sodipodi:nodetypes="ccccccccccccccccccccccccc" />
          <path
             style="opacity:0.99;fill:#d40000;fill-opacity:1;stroke:none;stroke-width:0.890244;stroke-opacity:1"
             d="m 842.02038,576.03405 101.641,-0.93679 c 6.74075,-0.59613 8.30605,2.32703 7.26008,7.02587 l -2.81037,18.73567 c -1.29982,4.17323 -3.89097,7.27031 -10.77298,6.79168 l -99.53325,0.70259 c -6.96862,-0.0154 -7.85416,-3.46904 -7.72846,-7.49427 l 3.74713,-18.73567 c 1.0156,-4.24347 4.10218,-6.44357 8.19685,-6.08908 z"
             id="path1012"
             sodipodi:nodetypes="ccccccccc" />
          <path
             style="opacity:0.99;fill:#d40000;fill-opacity:1;stroke:none;stroke-width:0.890244;stroke-opacity:1"
             d="m 827.26605,666.84248 101.641,-0.93678 c 6.74075,-0.59613 8.30606,2.32702 7.26009,7.02587 l -2.81037,18.73566 c -1.29983,4.17323 -3.89098,7.27031 -10.77299,6.79168 l -99.53326,0.70259 c -6.96862,-0.0154 -7.85416,-3.46904 -7.72846,-7.49427 l 3.74713,-18.73566 c 1.0156,-4.24348 4.10218,-6.44358 8.19686,-6.08909 z"
             id="path1068"
             sodipodi:nodetypes="ccccccccc" />
          <path
             style="opacity:0.99;fill:#d40000;fill-opacity:1;stroke:none;stroke-width:0.890244;stroke-opacity:1"
             d="m 827.14895,625.80066 c 1.16538,-3.00107 2.77215,-5.7373 8.54815,-5.97199 l 76.582,-0.1171 c 4.58068,-0.33317 7.19166,1.71808 5.8549,8.54814 l -3.27874,18.38438 c -0.86506,2.93978 -4.56086,5.17837 -8.43105,5.2694 l -76.46491,0.3513 c -5.39425,-0.29409 -6.63544,-3.35689 -6.44039,-7.37717 z"
             id="path1070"
             sodipodi:nodetypes="ccccccccc" />
          <path
             style="opacity:0.99;fill:#d40000;fill-opacity:1;stroke:none;stroke-width:0.890244;stroke-opacity:1"
             d="m 963.86205,602.31747 c 4.76688,-17.27743 23.09737,-28.05454 38.41955,-27.32423 h 81.4759 c 11.4911,0.0564 13.4402,1.22702 12.0889,9.27369 l -1.9872,13.08251 c -0.8858,9.00211 -5.475,9.03428 -12.4201,9.10807 l -72.5335,0.33121 c -4.8094,-0.27412 -9.45246,-0.53014 -10.76404,8.44567 l -7.12086,41.89717 c -2.6717,8.46189 1.23488,9.18467 5.96164,8.94248 l 42.39396,0.33121 c 2.896,0.42467 5.0414,-0.27647 5.2993,-3.80884 l 1.3248,-7.45206 c 0.8185,-3.73353 -1.6414,-3.25197 -3.8088,-3.14643 l -21.8594,-0.1656 c -4.3425,0.161 -5.6991,-1.70786 -4.3057,-7.45207 l 2.8153,-13.74492 c 1.8013,-6.51594 1.0638,-8.99072 9.4393,-8.44567 h 50.5084 c 5.9692,-0.27911 10.1347,-0.30172 7.6177,10.43289 l -9.2737,54.81408 c -0.5077,10.81484 -6.3942,11.44532 -14.7386,11.4265 h -86.27835 c -10.92329,-0.93938 -28.18805,-9.97036 -24.8402,-32.45788 z"
             id="path1072"
             sodipodi:nodetypes="ccccccccccccccccccccccccc" />
          <text
             xml:space="preserve"
             style="font-style:normal;font-variant:normal;font-weight:bold;font-stretch:normal;font-size:35.7223px;line-height:24.2;font-family:'Microsoft YaHei';-inkscape-font-specification:'Microsoft YaHei Bold';letter-spacing:0.00602412px;word-spacing:0.0301206px;opacity:0.99;fill:#000000;fill-opacity:1;stroke:none;stroke-width:2.39957;stroke-opacity:1"
             x="471.76492"
             y="731.28314"
             id="text1128"
             transform="scale(0.99082644,1.0092585)"><tspan
               sodipodi:role="line"
               id="tspan1126"
               x="471.76492"
               y="731.28314"
               style="font-style:normal;font-variant:normal;font-weight:bold;font-stretch:normal;font-family:'Microsoft YaHei UI';-inkscape-font-specification:'Microsoft YaHei UI weight=290';baseline-shift:baseline;fill:#000000;stroke-width:2.39957"
               rotate="1.3 1.3 1.3 1.3 1.3 1.3 1.3 1.3 1.3 1.3 1.3 1.3 1.3 1.3 1.3 1.3 1.3 1.3 1.3 1.3 1.3 1.3 1.3 1.3 1.3 1.3 0">CONECTADOS À SUA SEGURANÇA</tspan></text>
        </g>
      </g>
    </g>
  </g>
</svg>
